<?xml version="1.0" encoding="UTF-8"?>
<svg width="51px" height="51px" viewBox="0 0 51 51" version="1.1" xmlns="http://www.w3.org/2000/svg" xmlns:xlink="http://www.w3.org/1999/xlink">
    <!-- Generator: sketchtool 51 (57462) - http://www.bohemiancoding.com/sketch -->
    <title>BA8D06D5-861A-4306-9F25-96656ED994B8</title>
    <desc>Created with sketchtool.</desc>
    <defs></defs>
    <g id="Page-1" stroke="none" stroke-width="1" fill="none" fill-rule="evenodd">
        <g id="1.Home-notloggedin" transform="translate(-940.000000, -886.000000)" fill="#FFFFFF" fill-rule="nonzero">
            <g id="Group" transform="translate(102.000000, 798.000000)">
                <g id="Group-20-Copy-3" transform="translate(817.000000, 58.000000)">
                    <g id="Group" transform="translate(21.000000, 30.000000)">
                        <path d="M25.0896187,14.6948099 L18.817214,14.6948099 C14.781967,14.6948099 11.4994086,11.398974 11.4994086,7.34740497 C11.4994086,3.29583594 14.781967,0 18.817214,0 C22.8524611,0 26.1350195,3.29583594 26.1350195,7.34740497 L26.1350195,13.6451807 L25.0896187,14.6948099 Z M18.817214,2.09925856 C15.9360895,2.09925856 13.5902101,4.45462667 13.5902101,7.34740497 C13.5902101,10.2401833 15.9360895,12.5955514 18.817214,12.5955514 L24.044218,12.5955514 L24.044218,7.34740497 C24.044218,4.45462667 21.6983386,2.09925856 18.817214,2.09925856 Z" id="Shape"></path>
                        <path d="M31.3620234,14.6948099 L25.0896187,14.6948099 L24.044218,13.6451807 L24.044218,7.34740497 C24.044218,3.29583594 27.3267764,0 31.3620234,0 C35.3972704,0 38.6798289,3.29583594 38.6798289,7.34740497 C38.6798289,11.398974 35.3972704,14.6948099 31.3620234,14.6948099 Z M26.1350195,12.5955514 L31.3620234,12.5955514 C34.2452388,12.5955514 36.5890273,10.2401833 36.5890273,7.34740497 C36.5890273,4.45462667 34.2452388,2.09925856 31.3620234,2.09925856 C28.4788081,2.09925856 26.1350195,4.45462667 26.1350195,7.34740497 L26.1350195,12.5955514 Z" id="Shape"></path>
                        <rect id="Rectangle-path" x="20.9080156" y="13.6451807" width="2.09080156" height="35.6873956"></rect>
                        <rect id="Rectangle-path" x="27.1804203" y="13.6451807" width="2.09080156" height="35.6873956"></rect>
                        <path d="M46.8088653,25.1911028 L27.1804203,25.1911028 L27.1804203,23.0918442 L46.8088653,23.0918442 C47.5155563,23.0918442 48.0884359,22.5145481 48.0884359,21.8049987 L48.0884359,15.9816554 C48.0884359,15.272106 47.5155563,14.6948099 46.8088653,14.6948099 L3.14038394,14.6948099 C2.56123191,14.6948099 2.09080156,15.1671431 2.09080156,15.7486377 L2.09080156,22.0380164 C2.09080156,22.619511 2.56123191,23.0918442 3.14038394,23.0918442 L22.9988172,23.0918442 L22.9988172,25.1911028 L3.14038394,25.1911028 C1.40920025,25.1911028 0,23.7762025 0,22.0380164 L0,15.7486377 C0,14.0104516 1.40920025,12.5955514 3.14038394,12.5955514 L46.8088653,12.5955514 C48.6654971,12.5955514 50.1792375,14.1154146 50.1792375,15.9816554 L50.1792375,21.8049987 C50.1792375,23.6712396 48.6654971,25.1911028 46.8088653,25.1911028 Z" id="Shape"></path>
                        <path d="M43.388314,50.3822055 L7.31780546,50.3822055 C5.58871257,50.3822055 4.18160312,48.9694045 4.18160312,47.2333177 L4.18160312,23.098142 L6.27240468,23.098142 L6.27240468,47.2333177 C6.27240468,47.8106138 6.74074423,48.282947 7.31780546,48.282947 L43.388314,48.282947 C43.6747538,48.282947 43.9068328,48.0499293 43.9068328,47.7623308 L43.9068328,24.1414735 L45.9976343,24.1414735 L45.9976343,47.7623308 C45.9976343,49.2066207 44.8267855,50.3822055 43.388314,50.3822055 Z" id="Shape"></path>
                    </g>
                </g>
            </g>
        </g>
    </g>
</svg>