<?xml version="1.0" encoding="UTF-8"?>
<svg width="55px" height="48px" viewBox="0 0 55 48" version="1.1" xmlns="http://www.w3.org/2000/svg" xmlns:xlink="http://www.w3.org/1999/xlink">
    <!-- Generator: sketchtool 51 (57462) - http://www.bohemiancoding.com/sketch -->
    <title>93074552-D99B-480E-BD73-47994437D1EB</title>
    <desc>Created with sketchtool.</desc>
    <defs></defs>
    <g id="Page-1" stroke="none" stroke-width="1" fill="none" fill-rule="evenodd">
        <g id="1.Home-notloggedin" transform="translate(-661.000000, -891.000000)" fill="#FFFFFF" fill-rule="nonzero">
            <g id="Group" transform="translate(102.000000, 798.000000)">
                <g id="Group-20-Copy-2" transform="translate(545.000000, 58.000000)">
                    <g id="Group" transform="translate(14.000000, 35.000000)">
                        <g id="Group-19">
                            <path d="M19.3750009,0 C18.0116258,0 16.8750008,1.21239933 16.8750008,2.66666519 L16.8750008,6.66666296 L5.62500026,6.66666296 C2.53037512,6.66666296 0,9.36572813 0,12.6666596 L0,42.0000033 C0,45.3009348 2.53037512,48 5.62500026,48 L49.3750022,48 C52.4696274,48 55,45.3009348 55,42.0000033 L55,12.6666596 C55,9.36572813 52.4696274,6.66666296 49.3750022,6.66666296 L38.1250017,6.66666296 L38.1250017,2.66666519 C38.1250017,1.21239933 36.9883767,0 35.6250016,0 L19.3750009,0 Z M19.3750009,2.66666519 L35.6250016,2.66666519 L35.6250016,6.66666296 L19.3750009,6.66666296 L19.3750009,2.66666519 Z M5.62500026,9.33332815 L9.35550043,9.33332815 L9.35550043,45.3333348 L5.62500026,45.3333348 C3.87212518,45.3333348 2.50000011,43.8697356 2.50000011,42.0000033 L2.50000011,12.6666596 C2.50000011,10.7969273 3.87312518,9.27052818 5.62500026,9.33332815 Z M11.8555005,9.33332815 L43.1445645,9.33332815 L43.1445645,45.3333348 L11.8555005,45.3333348 L11.8555005,9.33332815 Z M45.6445646,9.33332815 L49.3750022,9.33332815 C51.1278773,9.33332815 52.5000024,10.7969273 52.5000024,12.6666596 L52.5000024,42.0000033 C52.5000024,43.8697356 51.1240648,45.2094016 49.3750022,45.3333348 L45.6445646,45.3333348 L45.6445646,9.33332815 Z" id="Shape"></path>
                        </g>
                    </g>
                </g>
            </g>
        </g>
    </g>
</svg>