<?xml version="1.0" encoding="UTF-8"?>
<svg width="43px" height="54px" viewBox="0 0 43 54" version="1.1" xmlns="http://www.w3.org/2000/svg" xmlns:xlink="http://www.w3.org/1999/xlink">
    <!-- Generator: sketchtool 51 (57462) - http://www.bohemiancoding.com/sketch -->
    <title>5C580A69-95A5-48F8-8859-09C5D2F4625E</title>
    <desc>Created with sketchtool.</desc>
    <defs></defs>
    <g id="Page-1" stroke="none" stroke-width="1" fill="none" fill-rule="evenodd">
        <g id="1.Home-notloggedin" transform="translate(-124.000000, -886.000000)" fill="#FFFFFF" fill-rule="nonzero">
            <g id="Group" transform="translate(102.000000, 798.000000)">
                <g id="Group-20" transform="translate(0.000000, 58.000000)">
                    <g id="Bitmap">
                        <path d="M30.0881283,83.952381 L56.4859458,83.952381 C60.7364418,83.952381 64.1666667,80.8430335 64.1666667,77.0511464 L61.0347222,41.1798942 L53.5031415,41.1798942 L53.5031415,41.1040564 C53.5031415,35.340388 48.9543651,30.7142857 43.287037,30.7142857 C37.619709,30.7142857 33.0709325,35.340388 33.0709325,41.1040564 L33.0709325,41.1798942 L25.5393519,41.1798942 L22.4074074,76.9753086 L22.4074074,77.0511464 C22.4074074,80.8430335 25.8376323,83.952381 30.0881283,83.952381 Z M35.531746,41.1040564 C35.531746,36.7813051 39.036541,33.2169312 43.287037,33.2169312 C47.5375331,33.2169312 51.042328,36.7813051 51.042328,41.1040564 L51.042328,41.1798942 L35.531746,41.1040564 Z M27.776455,43.6825397 L33.0709325,43.6825397 L33.0709325,48.3844797 L35.531746,48.3844797 L35.531746,43.6825397 L50.9677579,43.6825397 L50.9677579,48.3844797 L53.4285714,48.3844797 L53.4285714,43.6825397 L58.7230489,43.6825397 L61.6312831,77.1269841 C61.6312831,79.5537919 59.2450397,81.4497354 56.4113757,81.4497354 L30.0135582,81.4497354 C27.1798942,81.4497354 24.7936508,79.4779541 24.7936508,77.1269841 L27.776455,43.6825397 Z M34.786045,71.0599647 L50.0729167,55.5132275 L51.8625992,57.3333333 L36.5757275,72.8800705 L34.786045,71.0599647 Z M45.8969907,66.1305115 C44.1818783,67.8747795 44.1818783,70.7566138 45.8969907,72.5008818 C46.791832,73.4109347 47.9103836,73.7901235 49.0289352,73.7901235 C50.1474868,73.7901235 51.3406085,73.335097 52.1608796,72.5008818 C53.8759921,70.7566138 53.8759921,67.8747795 52.1608796,66.1305115 C51.3406085,65.2962963 50.2220569,64.8412698 49.0289352,64.8412698 C47.8358135,64.8412698 46.7172619,65.2962963 45.8969907,66.1305115 Z M50.4457672,70.7566138 C49.7000661,71.5149912 48.4323743,71.5149912 47.6866733,70.7566138 C46.9409722,69.9982363 46.9409722,68.7089947 47.6866733,67.9506173 C48.4323743,67.1922399 49.7000661,67.1922399 50.4457672,67.9506173 C51.1914683,68.7089947 51.1914683,69.9982363 50.4457672,70.7566138 Z M34.4131944,62.2627866 C35.3080357,63.1728395 36.4265873,63.5520282 37.5451389,63.5520282 C38.6636905,63.5520282 39.8568122,63.0970018 40.6770833,62.2627866 C42.3921958,60.5185185 42.3921958,57.6366843 40.6770833,55.8924162 C38.9619709,54.1481481 36.1283069,54.1481481 34.4131944,55.8924162 C32.698082,57.6366843 32.698082,60.5185185 34.4131944,62.2627866 Z M36.1283069,57.6366843 C36.8740079,56.8783069 38.1416997,56.8783069 38.8874008,57.6366843 C39.6331019,58.3950617 39.6331019,59.6843034 38.8874008,60.4426808 C38.1416997,61.2010582 36.8740079,61.2010582 36.1283069,60.4426808 C35.3826058,59.6843034 35.3826058,58.4708995 36.1283069,57.6366843 Z" id="Shape"></path>
                    </g>
                </g>
            </g>
        </g>
    </g>
</svg>