<?xml version="1.0" encoding="UTF-8"?>
<svg width="133px" height="37px" viewBox="0 0 133 37" version="1.1" xmlns="http://www.w3.org/2000/svg" xmlns:xlink="http://www.w3.org/1999/xlink">
    <!-- Generator: Sketch 51 (57462) - http://www.bohemiancoding.com/sketch -->
    <title>imgAndroid</title>
    <desc>Created with Sketch.</desc>
    <defs>
        <linearGradient x1="50%" y1="0%" x2="50%" y2="100%" id="linearGradient-1">
            <stop stop-color="#1E79AF" offset="0%"></stop>
            <stop stop-color="#63FFD3" offset="100%"></stop>
        </linearGradient>
        <linearGradient x1="84.7178118%" y1="14.4459862%" x2="5.24419544%" y2="96.5617838%" id="linearGradient-2">
            <stop stop-color="#DC4057" offset="0%"></stop>
            <stop stop-color="#9E36BB" offset="100%"></stop>
        </linearGradient>
        <linearGradient x1="50%" y1="0%" x2="50%" y2="97.8256537%" id="linearGradient-3">
            <stop stop-color="#FF9676" offset="0%"></stop>
            <stop stop-color="#FFD074" offset="100%"></stop>
        </linearGradient>
        <linearGradient x1="17.4435371%" y1="0%" x2="100%" y2="100%" id="linearGradient-4">
            <stop stop-color="#51C6AD" offset="0%"></stop>
            <stop stop-color="#D5FFA1" offset="100%"></stop>
        </linearGradient>
    </defs>
    <g id="Page-1" stroke="none" stroke-width="1" fill="none" fill-rule="evenodd">
        <g id="1.Home-notloggedin" transform="translate(-938.000000, -3890.000000)">
            <g id="FOOTER" transform="translate(105.000000, 3537.000000)">
                <g id="Group-28" transform="translate(18.000000, 41.000000)"></g>
                <g id="Group-28-Copy-2" transform="translate(541.000000, 195.000000)">
                    <g id="Group" transform="translate(292.000000, 158.000000)">
                        <rect id="bg" fill="#000000" x="0" y="0" width="133" height="37" rx="5.18400007"></rect>
                        <g id="google-play" transform="translate(8.233333, 6.529412)">
                            <path d="M0.948907894,0.279176203 C0.521621883,0.415193099 0.245103972,0.855405416 0.245103972,1.52141918 L0.247737476,22.4827618 C0.247737476,23.1414052 0.515696499,23.5749172 0.931131742,23.7196445 L12.4560033,11.9900299 L0.948907894,0.279176203" id="left" fill="url(#linearGradient-1)"></path>
                            <path d="M0.931131742,23.7196445 C1.23003444,23.8228298 1.60465037,23.7745873 2.01284348,23.5467758 L16.0770712,15.6752167 L12.4560033,11.9900299 L0.931131742,23.7196445" id="bottom" fill="url(#linearGradient-2)"></path>
                            <path d="M16.0790463,15.6752167 L20.8746569,12.9917307 C21.8470782,12.445653 21.8470782,11.557188 20.8746569,11.0124503 L16.0612701,8.31891379 L12.4560033,11.9880198 L16.0790463,15.6752167" id="right" fill="url(#linearGradient-3)"></path>
                            <path d="M16.0606118,8.31891379 L2.01284348,0.458075273 C1.61452601,0.236294029 1.24715221,0.184701414 0.94956627,0.279176203 L12.4560033,11.9880198 L16.0606118,8.31891379" id="top" fill="url(#linearGradient-4)"></path>
                        </g>
                        <path d="M64.554045,19.4282776 C62.282243,19.4390169 60.4482408,21.2958173 60.4553597,23.5779131 C60.4624787,25.8600088 62.3080292,27.7052269 64.5798536,27.7016639 C66.851678,27.698101 68.6914838,25.8471031 68.691509,23.5649962 C68.7074707,22.4596394 68.2760491,21.3951264 67.4960582,20.615276 C66.7160673,19.8354257 65.6543356,19.4070544 64.554045,19.4282776 Z M64.554045,26.0762277 C63.5300734,26.1481631 62.5663889,25.58402 62.1239112,24.6536219 C61.6814335,23.7232239 61.8500969,22.6156755 62.5492314,21.8607051 C63.248366,21.1057347 64.3358717,20.856791 65.2916065,21.2329411 C66.2473412,21.6090911 66.8770507,22.5338819 66.8795517,23.5649962 C66.9110844,24.2100049 66.6819153,24.8404612 66.2440492,25.3132971 C65.8061831,25.7861331 65.1967493,26.0612541 64.554045,26.0762277 Z M55.5330171,19.4282776 C53.2599307,19.4336502 51.4210635,21.2880945 51.424627,23.5714699 C51.4281905,25.8548452 53.272837,27.7034887 55.545929,27.7017021 C57.8190209,27.6999154 59.6607851,25.8483743 59.6607914,23.5649962 C59.6767531,22.4596394 59.2453315,21.3951264 58.4653406,20.615276 C57.6853497,19.8354257 56.623618,19.4070544 55.5233275,19.4282776 L55.5330171,19.4282776 Z M55.5330171,26.0762277 C54.508511,26.1522198 53.5420166,25.5908897 53.0964207,24.6610773 C52.6508247,23.7312649 52.8168473,22.6222736 53.5149747,21.8652364 C54.2131021,21.1081993 55.3012004,20.8572438 56.2581428,21.2325611 C57.2150852,21.6078783 57.8460449,22.5330563 57.8488341,23.5649962 C57.8803668,24.2100049 57.6511977,24.8404612 57.2133316,25.3132971 C56.7754655,25.7861331 56.1660317,26.0612541 55.5233275,26.0762277 L55.5330171,26.0762277 Z M44.7872383,20.7033602 L44.7872383,22.4553822 L48.9731503,22.4553822 C48.9075162,23.2805883 48.5660361,24.0592557 48.0041892,24.6648766 C47.1573394,25.5313728 45.9854006,25.9980272 44.7775487,25.9496928 C42.208865,25.9496928 40.1265354,23.8579409 40.1265354,21.2776341 C40.1265354,18.6973274 42.208865,16.6055755 44.7775487,16.6055755 C45.9575454,16.5862437 47.097011,17.0377916 47.9460515,17.8611912 L49.1766322,16.6250424 C48.0186457,15.4471562 46.4351683,14.7905334 44.7872383,14.8048862 C42.4413454,14.7131766 40.2335024,15.918074 39.0334058,17.9449545 C37.8333092,19.9718349 37.8333092,22.4958322 39.0334058,24.5227127 C40.2335024,26.5495931 42.4413454,27.7544905 44.7872383,27.662781 C46.4652513,27.7389495 48.0940514,27.0823519 49.254149,25.8620917 C50.2693061,24.7416946 50.8113113,23.2688667 50.7657284,21.7545734 C50.7688551,21.385664 50.7364049,21.0173175 50.6688323,20.654693 L44.7872383,20.7033602 Z M88.6908664,22.066044 C88.1735183,20.5371226 86.7703155,19.4877033 85.1638479,19.4282776 C84.0925292,19.4261735 83.0681256,19.8695998 82.3338802,20.6532656 C81.5996347,21.4369314 81.2210439,22.4909319 81.2880035,23.5649962 C81.2642067,24.6641915 81.6864058,25.7258509 82.4575901,26.5060319 C83.2287744,27.2862128 84.2826342,27.7178322 85.3770194,27.7017148 C86.753776,27.7091696 88.0422858,27.0217799 88.8071417,25.8718251 L87.4021481,24.8984796 C86.9755591,25.6128589 86.2063108,26.0491366 85.3770194,26.0470273 C84.5181239,26.0799119 83.726531,25.5819627 83.3809595,24.7914116 L88.8943482,22.5040495 L88.6908664,22.066044 Z M83.0708919,23.4481947 C83.0312149,22.8400136 83.2368999,22.2413873 83.6415777,21.7872692 C84.0462556,21.3331511 84.6158619,21.0617672 85.2219856,21.0342977 C85.8608893,20.9920074 86.4632891,21.3366992 86.7529442,21.9103087 L83.0708919,23.4481947 Z M78.5942916,27.4583784 L80.4062489,27.4583784 L80.4062489,15.291559 L78.5942916,15.291559 L78.5942916,27.4583784 Z M75.6292706,20.3529558 L75.5614433,20.3529558 C75.0090987,19.7326201 74.2194876,19.3785201 73.3909704,19.3796103 C71.191571,19.4867481 69.4631287,21.309248 69.4631287,23.5211956 C69.4631287,25.7331433 71.191571,27.5556432 73.3909704,27.662781 C74.2221733,27.6768202 75.0169026,27.320425 75.5614433,26.6894354 L75.619581,26.6894354 L75.619581,27.2831762 C75.619581,28.8697294 74.7765848,29.7165401 73.4200392,29.7165401 C72.4959439,29.6948125 71.6766147,29.1140717 71.3464624,28.2467883 L69.7670558,28.9086633 C70.3752549,30.3947779 71.8205081,31.3613562 73.4200392,31.3517606 C75.5420641,31.3517606 77.2958837,30.0961448 77.2958837,27.0398398 L77.2958837,19.671614 L75.6292706,19.671614 L75.6292706,20.3529558 Z M73.5556938,26.0762277 C72.2600839,25.9615285 71.2664033,24.8715131 71.2664033,23.5649962 C71.2664033,22.2584793 72.2600839,21.1684639 73.5556938,21.0537646 C74.1817585,21.0860384 74.768335,21.3708516 75.182434,21.8436311 C75.5965329,22.3164107 75.803076,22.9371074 75.7552355,23.5649962 C75.808659,24.1957722 75.6027767,24.8210316 75.1854576,25.2953979 C74.7681385,25.7697643 74.1757421,26.0519075 73.5460042,26.0762277 L73.5556938,26.0762277 Z M97.1789658,15.291559 L92.8477096,15.291559 L92.8477096,27.4583784 L94.6596669,27.4583784 L94.6596669,22.8447205 L97.1886554,22.8447205 C98.5962496,22.9463025 99.9424177,22.2495284 100.677041,21.0391382 C101.411665,19.8287479 101.411665,18.3075315 100.677041,17.0971413 C99.9424177,15.8867511 98.5962496,15.1899769 97.1886554,15.291559 L97.1789658,15.291559 Z M97.1789658,21.1316323 L94.6499772,21.1316323 L94.6499772,16.9851802 L97.2177242,16.9851802 C98.3656047,16.9851802 99.2961458,17.9199319 99.2961458,19.0730064 C99.2961458,20.226081 98.3656047,21.1608327 97.2177242,21.1608327 L97.1789658,21.1316323 Z M108.351087,19.3796103 C107.002984,19.2986659 105.735558,20.0289174 105.124447,21.2387003 L106.732922,21.9103087 C107.056949,21.3104049 107.702973,20.9592095 108.380156,21.0148308 C108.8448,20.9603182 109.311767,21.0955894 109.676169,21.3902601 C110.040571,21.6849308 110.271858,22.1142975 110.318078,22.5819172 L110.318078,22.7084521 C109.736113,22.3989273 109.087103,22.238448 108.428604,22.2412462 C106.694164,22.2412462 104.940344,23.2145918 104.940344,24.9763472 C104.974924,25.7352733 105.313627,26.4478798 105.879395,26.9520415 C106.445163,27.4562032 107.189883,27.7090466 107.944124,27.6530475 C108.873579,27.7200946 109.765353,27.2721902 110.26963,26.4850328 L110.327768,26.4850328 L110.327768,27.4583784 L112.071898,27.4583784 L112.071898,22.7765863 C112.071898,20.6449595 110.463423,19.4088107 108.399535,19.4088107 L108.351087,19.3796103 Z M108.128226,26.0470273 C107.53716,26.0470273 106.713543,25.7452902 106.713543,25.015281 C106.713543,24.0419355 107.740642,23.7207315 108.651465,23.7207315 C109.227069,23.7064641 109.795935,23.8476435 110.298699,24.1295366 C110.173409,25.2191142 109.268232,26.0495002 108.176674,26.0762277 L108.128226,26.0470273 Z M118.428283,19.671614 L116.354706,24.9471469 L116.296569,24.9471469 L114.145475,19.671614 L112.207553,19.671614 L115.434193,27.0495733 L113.593167,31.147358 L115.482641,31.147358 L120.443722,19.671614 L118.428283,19.671614 Z M102.140047,27.4583784 L103.952004,27.4583784 L103.952004,15.291559 L102.140047,15.291559 L102.140047,27.4583784 Z" id="Google-Play" fill="#FFFFFF" fill-rule="nonzero"></path>
                        <path d="M38.1333333,8.85455657 C38.1333333,7.17470228 39.3757319,6.09411765 40.9211424,6.09411765 C41.9565574,6.09411765 42.6332343,6.59042687 43.0556597,7.19819325 L42.2988763,7.63852399 C42.0122837,7.23817788 41.5102492,6.92679757 40.9211424,6.92679757 C39.870303,6.92679757 39.0891394,7.72649018 39.0891394,8.85455657 C39.0891394,9.96612929 39.870303,10.7823156 40.9211424,10.7823156 C41.4629814,10.7823156 41.9406356,10.5344108 42.1794627,10.3025 L42.1794627,9.4783168 L40.5867844,9.4783168 L40.5867844,8.65413361 L43.1034251,8.65413361 L43.1034251,10.6463678 C42.5859664,11.2306432 41.8371439,11.6224926 40.9211424,11.6224926 C39.3757319,11.6224926 38.1333333,10.5269137 38.1333333,8.85455657 Z M44.255766,11.5185326 L44.255766,6.18208383 L47.8953917,6.18208383 L47.8953917,7.00676684 L45.1871917,7.00676684 L45.1871917,8.38223812 L47.8396654,8.38223812 L47.8396654,9.20642131 L45.1871917,9.20642131 L45.1871917,10.6943494 L47.8953917,10.6943494 L47.8953917,11.5185326 L44.255766,11.5185326 Z M50.4737295,11.5185326 L50.4737295,7.00676684 L48.8651293,7.00676684 L48.8651293,6.18208383 L53.0142529,6.18208383 L53.0142529,7.00676684 L51.4056528,7.00676684 L51.4056528,11.5185326 L50.4737295,11.5185326 Z M56.2528481,6.18208383 L57.1842739,6.18208383 L57.1842739,11.5185326 L56.2528481,11.5185326 L56.2528481,6.18208383 Z M59.7795285,11.5185326 L59.7795285,7.00676684 L58.1709284,7.00676684 L58.1709284,6.18208383 L62.320052,6.18208383 L62.320052,7.00676684 L60.7114519,7.00676684 L60.7114519,11.5185326 L59.7795285,11.5185326 Z M65.327781,8.85455657 C65.327781,7.26216866 66.4502684,6.09411765 68.0439419,6.09411765 C69.6281618,6.09411765 70.7596052,7.26216866 70.7596052,8.85455657 C70.7596052,10.4464447 69.6281618,11.6144957 68.0439419,11.6144957 C66.4502684,11.6144957 65.327781,10.4464447 65.327781,8.85455657 Z M69.8037992,8.85455657 C69.8037992,7.75048096 69.110703,6.92679757 68.0439419,6.92679757 C66.9682248,6.92679757 66.283587,7.75048096 66.283587,8.85455657 C66.283587,9.95013544 66.9682248,10.7823156 68.0439419,10.7823156 C69.110703,10.7823156 69.8037992,9.95013544 69.8037992,8.85455657 Z M75.5510742,11.5185326 L72.779187,7.7024994 L72.779187,11.5185326 L71.8477613,11.5185326 L71.8477613,6.18208383 L72.8035673,6.18208383 L75.5192306,9.87866291 L75.5192306,6.18208383 L76.4511539,6.18208383 L76.4511539,11.5185326 L75.5510742,11.5185326 Z" id="get-it-on" fill="#FFFFFF"></path>
                    </g>
                </g>
            </g>
        </g>
    </g>
</svg>