<?xml version="1.0" encoding="UTF-8"?>
<svg width="54px" height="55px" viewBox="0 0 54 55" version="1.1" xmlns="http://www.w3.org/2000/svg" xmlns:xlink="http://www.w3.org/1999/xlink">
    <!-- Generator: sketchtool 51 (57462) - http://www.bohemiancoding.com/sketch -->
    <title>BE40590B-5CE9-49C3-A63F-9143C921A266</title>
    <desc>Created with sketchtool.</desc>
    <defs></defs>
    <g id="Page-1" stroke="none" stroke-width="1" fill="none" fill-rule="evenodd">
        <g id="1.Home-notloggedin" transform="translate(-396.000000, -890.000000)" fill="#FFFFFF">
            <g id="Group" transform="translate(102.000000, 798.000000)">
                <g id="Group-20-Copy" transform="translate(272.000000, 58.000000)">
                    <g id="Logo" transform="translate(22.400000, 34.809524)">
                        <ellipse id="Oval-6" cx="50.7733333" cy="2.18412698" rx="2.17212121" ry="2.18412698"></ellipse>
                        <ellipse id="Oval-6-Copy" cx="45.8860606" cy="7.0984127" rx="2.17212121" ry="2.18412698"></ellipse>
                        <ellipse id="Oval-6-Copy-2" cx="40.9987879" cy="12.0126984" rx="2.17212121" ry="2.18412698"></ellipse>
                        <ellipse id="Oval-6-Copy-16" cx="40.9987879" cy="18.8380952" rx="2.17212121" ry="2.18412698"></ellipse>
                        <ellipse id="Oval-6-Copy-17" cx="40.9987879" cy="25.3904762" rx="2.17212121" ry="2.18412698"></ellipse>
                        <ellipse id="Oval-6-Copy-18" cx="40.9987879" cy="31.9428571" rx="2.17212121" ry="2.18412698"></ellipse>
                        <ellipse id="Oval-6-Copy-19" cx="40.9987879" cy="38.4952381" rx="2.17212121" ry="2.18412698"></ellipse>
                        <ellipse id="Oval-6-Copy-12" cx="34.2109091" cy="12.0126984" rx="2.17212121" ry="2.18412698"></ellipse>
                        <ellipse id="Oval-6-Copy-13" cx="27.6945455" cy="12.0126984" rx="2.17212121" ry="2.18412698"></ellipse>
                        <ellipse id="Oval-6-Copy-14" cx="20.9066667" cy="12.0126984" rx="2.17212121" ry="2.18412698"></ellipse>
                        <ellipse id="Oval-6-Copy-15" cx="14.390303" cy="12.0126984" rx="2.17212121" ry="2.18412698"></ellipse>
                        <ellipse id="Oval-6-Copy-3" cx="34.4824242" cy="18.5650794" rx="2.17212121" ry="2.18412698"></ellipse>
                        <ellipse id="Oval-6-Copy-4" cx="29.5951515" cy="23.4793651" rx="2.17212121" ry="2.18412698"></ellipse>
                        <ellipse id="Oval-6-Copy-5" cx="24.9793939" cy="28.1206349" rx="2.17212121" ry="2.18412698"></ellipse>
                        <ellipse id="Oval-6-Copy-6" cx="20.3636364" cy="32.7619048" rx="2.17212121" ry="2.18412698"></ellipse>
                        <ellipse id="Oval-6-Copy-7" cx="15.4763636" cy="37.6761905" rx="2.17212121" ry="2.18412698"></ellipse>
                        <ellipse id="Oval-6-Copy-10" cx="8.68848485" cy="37.6761905" rx="2.17212121" ry="2.18412698"></ellipse>
                        <ellipse id="Oval-6-Copy-11" cx="2.17212121" cy="37.6761905" rx="2.17212121" ry="2.18412698"></ellipse>
                        <ellipse id="Oval-6-Copy-8" cx="15.7478788" cy="44.2285714" rx="2.17212121" ry="2.18412698"></ellipse>
                        <ellipse id="Oval-6-Copy-9" cx="15.7478788" cy="51.0539683" rx="2.17212121" ry="2.18412698"></ellipse>
                    </g>
                </g>
            </g>
        </g>
    </g>
</svg>